<svg width="24" height="24" viewBox="0 0 24 24" xmlns="http://www.w3.org/2000/svg"><path fill-rule="evenodd" clip-rule="evenodd" d="M19 15V4.5a2.5 2.5 0 00-5 0v2.6a2.5 2.5 0 00-2 .4 2.5 2.5 0 00-2-.4v-.6a2.5 2.5 0 00-5 0V15a7 7 0 1014 0zM17 4.5v6.4l-1-.3V4.5a.5.5 0 011 0zM17 15v-2h-.3c-.6-.3-1.2-.5-1.7-.5h-2c-.4 0-.8.1-1.1.3-.3.1-.4.4-.4.7 0 .5.2.7.3.7.2.2.5.3 1.2.3h2.3v2H15c-1 0-1.5.3-1.6.6-.3.3-.4.7-.4 1.4h-2c0-.7 0-1.5.5-2.2a3 3 0 01-.9-.4l-.8-1A2 2 0 018 13V6.5a.5.5 0 00-1 0V15a5 5 0 0010 0zm-6.2-4a3 3 0 00-.8.9V9.5a.5.5 0 011 0V11h-.2zM14 9.6v1h-1v-1a.5.5 0 011 0z" fill="#2196F3"/></svg>