<svg width="24" height="24" viewBox="0 0 24 24" xmlns="http://www.w3.org/2000/svg"><path fill-rule="evenodd" clip-rule="evenodd" d="M15.5 4c.6 0 1 .4 1 1 0 3.4 3 6 6 6a1 1 0 110 2 6 6 0 00-4.1 1.9 6 6 0 00-1.9 4.1 1 1 0 11-2 0c0-3-2.6-6-6-6a1 1 0 110-2c3.4 0 6-2.6 6-6 0-.6.4-1 1-1zm0 4.9a7.7 7.7 0 01-3.1 3.1c1.3.8 2.4 2 3.1 3.3a9.1 9.1 0 013.3-3.3A8.4 8.4 0 0115.5 9zM4 4c.6 0 1 .4 1 1 0 .5.5 1 1 1a1 1 0 010 2 1 1 0 00-.7.3A1 1 0 005 9a1 1 0 11-2 0c0-.5-.5-1-1-1a1 1 0 010-2c.6 0 1-.4 1-1s.4-1 1-1zM7 15c.5 0 .9.3 1 .8.1.7.2.9.3 1l.8.2a1 1 0 010 2c-.6 0-.8.2-.9.3L8 20a1 1 0 01-2 0c0-.6-.2-.8-.3-.9L5 19a1 1 0 010-2c.6 0 .8-.1.8-.2 0 0 .2-.2.3-1 0-.4.5-.8 1-.8z" fill="#2196F3"/></svg>